<svg width="40" height="27" viewBox="0 0 40 27" xmlns="http://www.w3.org/2000/svg">
    <defs>
        <clipPath id="x152gap10a">
            <path d="M1440 0v900H0V0h1440z"/>
        </clipPath>
        <clipPath id="sn8xqq2pub">
            <path d="M13.956 0a1.266 1.266 0 0 1 1.26 1.058L19 23.735l3.277-19.642a1.266 1.266 0 0 1 2.486-.07l3.184 14.086 1.909-6.482a1.266 1.266 0 0 1 2.417-.043l1.294 3.877.52-1.563a1.267 1.267 0 0 1 1.203-.864h2.077a.633.633 0 1 1 0 1.265H35.29l-.52 1.562a1.267 1.267 0 0 1-2.403 0l-1.296-3.877-1.909 6.482c-.162.553-.679.926-1.255.907a1.25 1.25 0 0 1-1.196-.985L23.527 4.304 20.25 23.943A1.247 1.247 0 0 1 19 25a1.247 1.247 0 0 1-1.25-1.057L13.966 1.268l-2.748 18.294a1.266 1.266 0 0 1-2.478.131L6.177 9.882l-1.63 3.668a1.267 1.267 0 0 1-1.159.749H.633a.633.633 0 1 1 0-1.265h2.755l1.632-3.67a1.267 1.267 0 0 1 2.383.195l2.563 9.812 2.748-18.293A1.266 1.266 0 0 1 13.956 0z"/>
        </clipPath>
    </defs>
    <g clip-path="url(#x152gap10a)" transform="translate(-1084 -271)">
        <g clip-path="url(#sn8xqq2pub)" transform="translate(1085 272)">
            <path d="M0 0h38v25H0V0z"/>
        </g>
        <path d="M1104 297a1.247 1.247 0 0 1-1.25-1.057l-3.784-22.675-2.748 18.294a1.266 1.266 0 0 1-2.478.131l-2.563-9.811-1.63 3.668a1.267 1.267 0 0 1-1.159.749h-2.755a.633.633 0 1 1 0-1.265h2.755l1.632-3.67a1.267 1.267 0 0 1 2.383.195l2.563 9.812 2.748-18.293a1.266 1.266 0 0 1 2.502-.02l3.784 22.677 3.277-19.642a1.266 1.266 0 0 1 2.486-.07l3.184 14.086 1.909-6.482a1.266 1.266 0 0 1 2.417-.043l1.294 3.877.52-1.563a1.267 1.267 0 0 1 1.203-.864h2.077a.633.633 0 1 1 0 1.265h-2.077l-.52 1.562a1.267 1.267 0 0 1-2.403 0l-1.296-3.877-1.909 6.482c-.162.553-.679.926-1.255.907a1.25 1.25 0 0 1-1.196-.985l-3.184-14.084-3.277 19.639A1.247 1.247 0 0 1 1104 297z" stroke="#000" fill="none" stroke-linejoin="round"/>
    </g>
</svg>
